<svg xmlns="http://www.w3.org/2000/svg" width="1422" height="1538" viewBox="0 0 1422 1538" version="1.1"><path d="M 549.468 1011.500 C 549.468 1043.400, 549.595 1056.595, 549.749 1040.821 C 549.904 1025.048, 549.904 998.948, 549.750 982.821 C 549.595 966.695, 549.468 979.600, 549.468 1011.500 M 1106.468 1011.500 C 1106.468 1043.400, 1106.595 1056.595, 1106.749 1040.821 C 1106.904 1025.048, 1106.904 998.948, 1106.750 982.821 C 1106.595 966.695, 1106.468 979.600, 1106.468 1011.500 M 358.464 1018.500 C 358.464 1046.550, 358.592 1058.169, 358.749 1044.320 C 358.906 1030.471, 358.906 1007.521, 358.749 993.320 C 358.593 979.119, 358.465 990.450, 358.464 1018.500 M 395.428 1002 C 395.428 1014.375, 395.571 1019.438, 395.747 1013.250 C 395.922 1007.063, 395.922 996.938, 395.747 990.750 C 395.571 984.563, 395.428 989.625, 395.428 1002 M 173.220 1029.250 C 173.341 1051.388, 173.565 1063.200, 173.717 1055.500 C 174.417 1019.977, 174.433 988.999, 173.750 988.999 C 173.338 989, 173.099 1007.112, 173.220 1029.250 M 331.458 990.067 C 330.964 990.868, 331.101 991.055, 331.845 990.595 C 332.709 990.062, 333.060 999.906, 333.238 1029.691 L 333.476 1069.500 333.750 1030.062 C 334.004 993.499, 333.608 986.590, 331.458 990.067 M 863.374 1004.500 C 863.376 1010.550, 863.541 1012.896, 863.740 1009.713 C 863.939 1006.531, 863.937 1001.581, 863.736 998.713 C 863.535 995.846, 863.372 998.450, 863.374 1004.500 M 686.993 1040.332 C 702.665 1056.099, 715.643 1069, 715.833 1069 C 716.645 1069, 677.114 1028.843, 668.232 1020.646 C 662.880 1015.706, 671.322 1024.564, 686.993 1040.332 M 1243.993 1040.332 C 1259.665 1056.099, 1272.643 1069, 1272.833 1069 C 1273.645 1069, 1234.114 1028.843, 1225.232 1020.646 C 1219.880 1015.706, 1228.322 1024.564, 1243.993 1040.332 M 605.486 1023.750 L 636.472 1024.030 642.486 1029.765 L 648.500 1035.500 642.531 1029.250 L 636.563 1023 605.531 1023.235 L 574.500 1023.470 605.486 1023.750 M 1162.486 1023.750 L 1193.472 1024.030 1199.486 1029.765 L 1205.500 1035.500 1199.531 1029.250 L 1193.563 1023 1162.531 1023.235 L 1131.500 1023.470 1162.486 1023.750 M 806.722 1041.750 L 862.944 1042.017 863.252 1055.758 L 863.561 1069.500 863.781 1055.250 L 864 1041 807.250 1041.242 L 750.500 1041.483 806.722 1041.750 M 977.750 1043.749 C 989.988 1043.908, 1010.013 1043.908, 1022.250 1043.749 C 1034.487 1043.590, 1024.475 1043.460, 1000 1043.460 C 975.525 1043.460, 965.513 1043.590, 977.750 1043.749 M 669.211 1057.534 C 675.652 1064.066, 681.172 1069.162, 681.477 1068.856 C 681.782 1068.551, 676.512 1063.206, 669.766 1056.979 L 657.500 1045.656 669.211 1057.534 M 1226.211 1057.534 C 1232.652 1064.066, 1238.172 1069.162, 1238.477 1068.856 C 1238.782 1068.551, 1233.512 1063.206, 1226.766 1056.979 L 1214.500 1045.656 1226.211 1057.534 M 395.208 1059.750 L 395.415 1069.500 395.745 1060.259 L 396.075 1051.018 447.787 1050.750 L 499.500 1050.482 447.250 1050.241 L 395 1050 395.208 1059.750" stroke="none" fill="#2c74fc" fill-rule="evenodd"/><path d="M 518.871 243.997 C 505.272 246.356, 494.482 255.904, 490.584 269.028 C 489.267 273.463, 489 280.407, 489 310.182 C 489 329.882, 489.348 346, 489.773 346 C 490.501 346, 534.455 248.204, 535.167 244.999 C 535.431 243.809, 534.263 243.468, 529.500 243.347 C 526.200 243.263, 521.417 243.555, 518.871 243.997 M 544.090 247.250 C 543.079 249.588, 530.270 278.444, 515.626 311.377 L 489 371.253 489 444.957 L 489 518.660 555.019 542.999 C 591.330 556.386, 621.930 567.963, 623.019 568.726 C 624.981 570.100, 625 571.800, 625 741.900 L 625 913.686 670.250 914.273 C 695.138 914.597, 735.862 914.596, 760.750 914.272 L 806 913.683 806 741.898 C 806 571.543, 806.017 570.102, 807.990 568.720 C 809.084 567.953, 839.684 556.371, 875.990 542.981 L 942 518.636 942 445.050 L 942 371.464 918.452 318.482 C 905.501 289.342, 892.622 260.438, 889.832 254.250 L 884.759 243 715.344 243 L 545.929 243 544.090 247.250 M 895.780 243.611 C 895.288 244.468, 938.453 342.512, 940.795 345.855 C 941.672 347.107, 941.894 338.290, 941.724 309 L 941.500 270.500 938.595 264.209 C 934.937 256.288, 927.205 248.969, 919.414 246.054 C 913.484 243.835, 896.650 242.095, 895.780 243.611 M 570 344.821 C 558.720 348.557, 549.126 357.291, 543.685 368.777 C 540.679 375.121, 540.500 376.148, 540.500 387 C 540.500 397.809, 540.687 398.891, 543.610 405 C 557.135 433.264, 593.095 439.788, 614.941 417.941 C 636.391 396.492, 630.440 360.717, 603.182 347.245 C 596.230 343.810, 594.945 343.519, 585.591 343.269 C 577.941 343.064, 574.170 343.439, 570 344.821 M 833.487 344.799 C 818.910 349.839, 808.294 361.088, 804.552 375.460 C 797.197 403.705, 818.334 430.932, 847.661 430.988 C 864.303 431.020, 879.868 420.829, 887.353 405 C 892.924 393.217, 892.110 375.870, 885.454 364.511 C 882.500 359.471, 875.723 352.531, 870.500 349.198 C 860.975 343.120, 844.132 341.118, 833.487 344.799 M 633.457 435.283 C 629.769 438.456, 629.341 444.142, 631.866 456.413 C 636.084 476.905, 648.255 495.919, 664.656 507.642 C 672.350 513.141, 685.334 519.215, 694.500 521.604 C 704.279 524.152, 726.721 524.152, 736.500 521.604 C 744.786 519.444, 757.915 513.524, 764.673 508.898 C 784.770 495.145, 798.288 471.604, 800.615 446.311 C 801.264 439.249, 801.222 439.068, 798.215 436.061 L 795.154 433 715.633 433 L 636.112 433 633.457 435.283 M 489.236 706.250 L 489.500 883.500 492.441 889.500 C 495.626 896, 502.017 902.836, 509.611 907.866 C 518.711 913.893, 519.766 914, 570.184 914 L 616.006 914 615.753 744.394 L 615.500 574.788 553.500 551.902 C 519.400 539.315, 490.931 529.013, 490.236 529.008 C 489.222 529.002, 489.025 563.961, 489.236 706.250 M 877 551.969 L 815.500 574.741 815.247 744.407 L 814.994 914.074 862.747 913.787 C 908.897 913.510, 910.651 913.429, 915 911.394 C 922.215 908.017, 931.451 900.451, 935.301 894.764 C 942.484 884.155, 942 897.946, 942 703.818 C 942 537.954, 941.910 529.005, 940.250 529.098 C 939.288 529.153, 910.825 539.444, 877 551.969 M 540.227 609.116 C 530.135 614.112, 525.311 626.610, 529.549 636.782 C 535.959 652.170, 556.238 655.241, 566.803 642.423 C 578.362 628.400, 568.265 606.998, 550.093 607.001 C 546.414 607.001, 543.038 607.725, 540.227 609.116 M 867.500 608.842 C 856.157 614.246, 851.822 627.229, 857.533 638.691 C 867.772 659.237, 898.514 651.490, 898.391 628.393 C 898.350 620.863, 895.126 614.745, 888.935 610.455 C 883.444 606.650, 873.649 605.912, 867.500 608.842 M 540.882 619.882 C 537.556 623.209, 537.001 624.390, 537.004 628.132 C 537.008 633.640, 539.705 638.157, 544.283 640.330 C 548.810 642.478, 551.713 642.439, 555.938 640.173 C 563.868 635.920, 565.223 625.341, 558.613 619.284 C 555.536 616.464, 554.304 616, 549.897 616 C 545.269 616, 544.384 616.381, 540.882 619.882 M 869.873 617.684 C 861.340 622.979, 862.428 636.774, 871.684 640.641 C 876.256 642.551, 880.951 641.754, 884.953 638.387 C 894.109 630.682, 888.987 615.959, 877.173 616.027 C 874.603 616.041, 871.318 616.787, 869.873 617.684 M 540.444 712.310 C 524.418 719.975, 520.942 740.010, 533.466 752.534 C 541.458 760.526, 551.935 762.328, 561.805 757.410 C 576.238 750.218, 580.311 732.274, 570.446 719.341 C 563.928 710.795, 550.293 707.600, 540.444 712.310 M 865.444 712.310 C 853.022 718.251, 847.294 733.712, 853.084 745.673 C 861.545 763.152, 885.839 764.835, 896.693 748.693 C 904.546 737.015, 900.958 721.148, 888.769 713.647 C 881.977 709.467, 872.521 708.925, 865.444 712.310 M 543.970 721.250 C 532.620 726.984, 531.794 740.606, 542.323 748.408 C 546.714 751.662, 555.547 751.346, 560.239 747.767 C 569.725 740.531, 568.344 725.782, 557.729 720.964 C 552.208 718.457, 549.382 718.516, 543.970 721.250 M 870.352 720.092 C 868.620 720.594, 865.830 722.569, 864.151 724.481 C 858.427 731, 858.730 739.965, 864.882 746.118 C 873.066 754.301, 886.390 751.401, 890.541 740.532 C 893.527 732.714, 890.188 724.349, 882.729 720.964 C 878.144 718.882, 875.236 718.677, 870.352 720.092 M 545.500 819.951 C 528.841 823.920, 522.578 842.969, 533.671 855.929 C 538.116 861.122, 544.114 863.377, 551.971 862.809 C 562.563 862.042, 570.348 854.300, 571.659 843.229 C 572.303 837.795, 569.763 830.519, 565.701 826.165 C 561.126 821.261, 551.906 818.424, 545.500 819.951 M 871.395 820.140 C 866.197 821.305, 859.282 827.170, 856.886 832.444 C 854.539 837.612, 854.530 845.368, 856.865 850.509 C 859.087 855.399, 864.556 860.368, 869.520 862.007 C 875.277 863.907, 884.101 862.861, 888.854 859.715 C 902.899 850.421, 901.199 827.875, 885.986 821.674 C 880.908 819.604, 876.058 819.094, 871.395 820.140 M 546.542 828.729 C 540.670 830.221, 537 835.351, 537 842.068 C 537 845.575, 537.615 846.850, 540.882 850.118 C 544.384 853.619, 545.269 854, 549.897 854 C 554.293 854, 555.538 853.534, 558.576 850.749 C 565.432 844.467, 563.877 833.666, 555.576 829.895 C 551.440 828.017, 550.052 827.838, 546.542 828.729 M 872.035 829.269 C 862.524 832.648, 861.163 847.930, 869.967 852.483 C 871.581 853.317, 874.993 854, 877.550 854 C 881.483 854, 882.712 853.488, 885.521 850.679 C 889.866 846.334, 890.847 841.375, 888.353 836.358 C 885.022 829.655, 878.690 826.905, 872.035 829.269 M 159.759 951.390 C 158.252 952.051, 156.306 953.472, 155.435 954.546 C 154.564 955.621, 154.149 955.825, 154.513 955 C 154.876 954.175, 154.270 954.612, 153.165 955.972 C 152.060 957.332, 151.373 958.794, 151.637 959.222 C 151.902 959.650, 151.615 960, 151 960 C 150.385 960, 150.160 960.450, 150.500 961 C 150.840 961.550, 150.678 962, 150.140 962 C 149.516 962, 149.119 981.380, 149.043 1015.500 L 148.925 1069 160.963 1069 L 173 1069 173 1029 C 173 1007, 173.220 989, 173.489 989 C 174.648 989, 177.852 992.431, 177.390 993.178 C 177.110 993.630, 177.659 994, 178.608 994 C 179.557 994, 180.056 994.277, 179.718 994.615 C 179.379 994.954, 180.654 996.695, 182.551 998.484 C 184.448 1000.272, 186 1002.145, 186 1002.645 C 186 1003.145, 188.475 1006.130, 191.499 1009.277 C 194.523 1012.425, 196.718 1015, 196.377 1015 C 196.035 1015, 196.311 1015.670, 196.991 1016.489 C 197.671 1017.308, 198.626 1017.731, 199.113 1017.430 C 199.601 1017.129, 200 1017.454, 200 1018.153 C 200 1018.853, 201.238 1020.487, 202.750 1021.785 C 204.262 1023.083, 204.825 1023.828, 204 1023.440 C 203.175 1023.052, 203.963 1024.119, 205.750 1025.811 C 207.537 1027.503, 209 1029.389, 209 1030.003 C 209 1030.616, 209.363 1030.893, 209.808 1030.619 C 210.252 1030.344, 211.489 1031.330, 212.558 1032.810 C 213.626 1034.289, 215.785 1036.737, 217.356 1038.250 C 218.926 1039.763, 219.882 1041, 219.480 1041 C 219.078 1041, 220.468 1042.575, 222.570 1044.500 C 224.671 1046.425, 226.009 1048, 225.542 1048 C 225.076 1048, 225.775 1048.949, 227.097 1050.109 C 228.419 1051.269, 229.376 1052.652, 229.225 1053.183 C 229.074 1053.714, 229.361 1053.895, 229.862 1053.585 C 230.363 1053.276, 231.387 1053.778, 232.137 1054.703 C 233.309 1056.148, 233.290 1056.266, 232 1055.545 C 231.175 1055.083, 231.512 1055.690, 232.750 1056.892 C 233.988 1058.094, 235 1059.537, 235 1060.098 C 235 1060.659, 235.450 1060.840, 236 1060.500 C 236.550 1060.160, 237 1060.376, 237 1060.980 C 237 1063.011, 246.987 1071.973, 249.276 1071.996 C 250.499 1072.008, 252.400 1072.033, 253.500 1072.050 C 257.410 1072.112, 262.167 1070.729, 262.684 1069.381 C 262.973 1068.628, 263.612 1068.260, 264.105 1068.565 C 264.597 1068.869, 265 1068.555, 265 1067.868 C 265 1067.180, 267.587 1064.157, 270.750 1061.149 C 273.913 1058.142, 275.825 1056.030, 275 1056.457 C 274.175 1056.883, 275.389 1055.492, 277.698 1053.366 C 280.008 1051.240, 282.816 1047.925, 283.940 1046 C 285.063 1044.075, 286.211 1042.612, 286.491 1042.750 C 286.771 1042.888, 287.098 1042.662, 287.219 1042.250 C 287.339 1041.838, 289.477 1039.503, 291.969 1037.061 C 294.461 1034.620, 295.825 1032.999, 295 1033.458 C 294.175 1033.918, 294.512 1033.310, 295.750 1032.108 C 296.988 1030.906, 298 1029.520, 298 1029.028 C 298 1028.537, 298.907 1027.847, 300.015 1027.495 C 301.123 1027.144, 301.785 1026.461, 301.487 1025.979 C 301.188 1025.496, 302.307 1024.094, 303.972 1022.862 C 305.637 1021.631, 307 1020.140, 307 1019.549 C 307 1018.958, 308.117 1017.636, 309.481 1016.611 C 310.846 1015.587, 311.777 1014.448, 311.550 1014.080 C 311.323 1013.713, 313.581 1011.235, 316.568 1008.574 C 319.556 1005.913, 322 1003.305, 322 1002.778 C 322 1002.251, 323.012 1000.927, 324.250 999.834 C 325.488 998.742, 325.868 998.176, 325.095 998.578 C 324.172 999.059, 323.935 998.914, 324.405 998.155 C 324.797 997.520, 325.766 997, 326.559 997 C 327.352 997, 327.888 996.598, 327.750 996.106 C 327.613 995.615, 328.850 993.987, 330.500 992.489 C 332.150 990.991, 332.868 990.112, 332.095 990.537 C 331.154 991.055, 330.929 990.923, 331.415 990.138 C 333.586 986.624, 334 992.931, 334 1029.559 L 334 1069 346 1069 L 358 1069 358.114 1018.750 C 358.177 991.112, 358.375 967.263, 358.554 965.750 C 358.733 964.237, 358.431 963, 357.881 963 C 357.332 963, 357.160 962.550, 357.500 962 C 357.840 961.450, 357.696 961, 357.180 961 C 356.665 961, 355.699 959.689, 355.036 958.086 C 354.369 956.476, 352.524 954.631, 350.914 953.964 C 349.311 953.301, 348 952.437, 348 952.045 C 348 951.249, 346.325 950.903, 342.250 950.859 C 336.818 950.801, 333.538 951.914, 331.697 954.441 C 330.668 955.854, 329.447 956.776, 328.985 956.491 C 328.522 956.205, 327.856 956.877, 327.505 957.985 C 327.153 959.093, 326.446 960, 325.933 960 C 325.420 960, 325 960.648, 325 961.441 C 325 962.234, 324.480 963.203, 323.845 963.595 C 323.082 964.068, 322.965 963.866, 323.500 963 C 324.035 962.134, 323.918 961.932, 323.155 962.405 C 322.520 962.797, 322 963.665, 322 964.334 C 322 965.003, 319.429 968.238, 316.287 971.525 C 313.145 974.811, 310.670 977.837, 310.787 978.250 C 310.904 978.663, 310.325 979, 309.500 979 C 308.675 979, 308 979.494, 308 980.099 C 308 980.703, 306.762 982.423, 305.250 983.921 C 300.863 988.265, 296.500 993.294, 296.500 994.006 C 296.500 994.367, 294.813 996.254, 292.750 998.199 C 290.688 1000.145, 289 1002.246, 289 1002.868 C 289 1003.491, 288.663 1004.001, 288.250 1004.003 C 287.837 1004.004, 286.618 1005.322, 285.540 1006.932 C 284.461 1008.541, 283.224 1009.638, 282.790 1009.370 C 282.355 1009.102, 282 1009.341, 282 1009.902 C 282 1010.463, 280.988 1011.906, 279.750 1013.108 C 278.512 1014.310, 278.175 1014.950, 279 1014.529 C 279.825 1014.109, 279.071 1015.280, 277.325 1017.132 C 275.579 1018.985, 272.352 1022.413, 270.153 1024.750 C 267.955 1027.088, 266.394 1029, 266.684 1029 C 266.974 1029, 265.926 1030.237, 264.356 1031.750 C 262.785 1033.263, 260.626 1035.711, 259.558 1037.190 C 258.489 1038.670, 257.252 1039.656, 256.808 1039.381 C 256.363 1039.107, 256 1039.535, 256 1040.334 C 256 1041.945, 253.330 1043.322, 251.910 1042.444 C 251.409 1042.135, 251 1041.282, 251 1040.548 C 251 1039.814, 250.296 1038.944, 249.437 1038.614 C 248.577 1038.284, 248.122 1037.612, 248.426 1037.120 C 248.729 1036.629, 248.222 1035.613, 247.297 1034.863 C 245.869 1033.705, 245.743 1033.711, 246.463 1034.905 C 247.037 1035.858, 246.938 1036.080, 246.155 1035.595 C 245.520 1035.203, 245 1034.423, 245 1033.863 C 245 1033.302, 243.313 1031.187, 241.250 1029.162 C 239.188 1027.138, 236.375 1023.939, 235 1022.053 C 233.625 1020.168, 231.503 1017.742, 230.284 1016.662 C 229.065 1015.582, 228.284 1014.349, 228.549 1013.921 C 228.813 1013.494, 228.123 1012.856, 227.015 1012.505 C 225.907 1012.153, 225 1011.512, 225 1011.081 C 225 1010.358, 223.905 1009.030, 216.276 1000.500 C 214.801 998.850, 213.685 997.388, 213.797 997.250 C 213.909 997.112, 213.790 997.112, 213.534 997.250 C 213.278 997.388, 211.750 995.421, 210.139 992.880 C 208.527 990.339, 206.149 987.517, 204.854 986.611 C 203.559 985.704, 202.500 984.597, 202.500 984.152 C 202.500 983.707, 200.250 981.162, 197.500 978.497 C 194.750 975.832, 193.175 974.008, 194 974.443 C 194.825 974.879, 194.262 974.117, 192.750 972.751 C 191.238 971.385, 190 969.757, 190 969.134 C 190 968.510, 189.325 968, 188.500 968 C 187.675 968, 187 967.351, 187 966.557 C 187 965.763, 185.988 964.404, 184.750 963.537 C 183.512 962.671, 182.500 961.592, 182.500 961.140 C 182.500 960.115, 175.006 952.763, 174.985 953.768 C 174.976 954.170, 174.543 953.825, 174.022 953 C 173.501 952.175, 172.271 951.411, 171.288 951.303 C 170.304 951.194, 167.925 950.899, 166 950.646 C 164.075 950.393, 161.267 950.728, 159.759 951.390 M 377.250 953.794 L 370 954.088 370 1011.544 L 370 1069 382.500 1069 L 395 1069 395 1059.464 L 395 1049.928 449.250 1049.928 C 497.036 1049.927, 508.500 1049.742, 508.500 1048.969 C 508.500 1048.861, 509.844 1048.617, 511.486 1048.428 C 513.128 1048.238, 514.629 1047.612, 514.821 1047.036 C 515.014 1046.459, 515.582 1046.242, 516.085 1046.553 C 516.588 1046.864, 517 1046.656, 517 1046.090 C 517 1045.525, 517.675 1045.322, 518.500 1045.638 C 519.325 1045.955, 520 1045.716, 520 1045.107 C 520 1044.498, 520.649 1044, 521.443 1044 C 522.237 1044, 523.587 1043, 524.443 1041.777 C 525.299 1040.555, 526 1039.935, 526 1040.400 C 526 1040.865, 526.670 1040.689, 527.489 1040.009 C 528.308 1039.329, 528.686 1038.262, 528.329 1037.637 C 527.972 1037.012, 528.048 1036.834, 528.498 1037.241 C 529.651 1038.287, 532 1036.103, 532 1033.985 C 532 1033.011, 532.675 1031.955, 533.500 1031.638 C 534.325 1031.322, 535 1030.374, 535 1029.531 C 535 1028.689, 535.477 1028, 536.059 1028 C 536.641 1028, 536.840 1027.550, 536.500 1027 C 536.160 1026.450, 536.284 1026, 536.774 1026 C 537.265 1026, 537.706 1025.438, 537.753 1024.750 C 537.801 1024.063, 538.137 1022.375, 538.500 1021 C 538.863 1019.625, 539.199 1017.938, 539.247 1017.250 C 539.294 1016.563, 539.652 1016, 540.041 1016 C 541.126 1016, 540.842 989.671, 539.743 988.263 C 539.211 987.582, 539.032 986.359, 539.344 985.545 C 539.657 984.730, 539.475 983.794, 538.940 983.463 C 538.405 983.132, 538.226 982.443, 538.543 981.931 C 538.859 981.419, 538.615 981, 538 981 C 537.385 981, 537.160 980.550, 537.500 980 C 537.840 979.450, 537.694 979, 537.176 979 C 536.272 979, 534.667 975.310, 534.892 973.750 C 534.951 973.337, 534.652 973, 534.227 973 C 533.802 973, 532.607 971.425, 531.570 969.500 C 530.533 967.575, 529.372 966, 528.989 966 C 528.605 966, 526.989 964.773, 525.396 963.273 C 523.803 961.773, 522.275 960.514, 522 960.474 C 519.633 960.132, 517.079 958.681, 517.537 957.939 C 517.849 957.435, 517.406 957.291, 516.552 957.618 C 515.650 957.965, 515 957.681, 515 956.940 C 515 956.240, 514.704 955.963, 514.342 956.325 C 513.980 956.687, 513.139 956.530, 512.472 955.977 C 511.806 955.424, 509.515 954.790, 507.380 954.569 C 505.246 954.348, 503.500 954.080, 503.500 953.974 C 503.500 953.650, 384.981 953.481, 377.250 953.794 M 760.446 954.088 C 760.125 954.608, 759.526 954.825, 759.116 954.572 C 757.945 953.848, 748 957.036, 748 958.134 C 748 958.675, 747.550 958.840, 747 958.500 C 746.450 958.160, 746 958.293, 746 958.796 C 746 959.299, 743.996 960.977, 741.546 962.525 C 739.097 964.074, 737.323 965.714, 737.605 966.170 C 737.887 966.627, 737.447 967, 736.626 967 C 735.806 967, 734.824 967.978, 734.445 969.173 C 734.066 970.368, 732.926 972.236, 731.912 973.325 C 730.899 974.413, 730.305 975.685, 730.594 976.151 C 730.882 976.618, 730.641 977, 730.059 977 C 729.477 977, 729 977.871, 729 978.935 C 729 979.999, 728.469 982.137, 727.821 983.685 C 725.903 988.265, 725.771 990.768, 725.342 1030.750 L 724.932 1069 737.966 1069 L 751 1069 751 1055 L 751 1041 807.500 1041 L 864 1041 864 1055 L 864 1069 876.535 1069 L 889.070 1069 888.958 1028.500 C 888.884 1001.446, 888.504 988, 887.816 988 C 887.250 988, 887.017 987.398, 887.299 986.662 C 887.582 985.926, 887.221 984.014, 886.497 982.412 C 885.773 980.810, 884.923 978.328, 884.607 976.894 C 884.292 975.461, 882.452 972.561, 880.517 970.449 C 878.583 968.337, 877 966.323, 877 965.974 C 877 965.624, 875.890 964.744, 874.534 964.018 C 873.178 963.292, 872.256 962.395, 872.485 962.025 C 872.846 961.440, 864.398 956.757, 863.745 957.179 C 863.610 957.267, 862.458 956.780, 861.185 956.099 C 859.912 955.418, 857.887 954.567, 856.685 954.208 C 853.111 953.142, 761.101 953.027, 760.446 954.088 M 550 1011.500 L 550 1069 562.500 1069 L 575 1069 575 1046 L 575 1023 605.781 1023 L 636.563 1023 642.531 1029.250 L 648.500 1035.500 642 1029.500 L 635.501 1023.500 641 1029.343 C 644.025 1032.557, 654.690 1042.811, 664.699 1052.131 L 682.899 1069.077 700.100 1068.951 L 717.300 1068.826 702.967 1054.467 C 695.084 1046.570, 688.346 1040.286, 687.994 1040.504 C 687.169 1041.014, 671.774 1025.559, 672.442 1024.891 C 672.719 1024.614, 669.920 1021.488, 666.223 1017.944 L 659.500 1011.500 666 1018.500 L 672.500 1025.500 665.739 1019.018 L 658.977 1012.535 688.232 983.268 L 717.487 954 699.604 954 C 683.726 954, 681.577 954.196, 680.441 955.750 C 679.737 956.712, 678.775 957.500, 678.302 957.500 C 677.830 957.500, 675.431 959.477, 672.972 961.894 C 670.512 964.310, 669.175 965.911, 670 965.452 C 671.290 964.733, 671.309 964.852, 670.137 966.297 C 669.387 967.222, 668.455 967.781, 668.065 967.540 C 667.245 967.033, 664 970.566, 664 971.966 C 664 972.484, 661.862 974.540, 659.250 976.535 C 656.638 978.530, 654.480 980.688, 654.455 981.331 C 654.430 981.974, 653.867 982.388, 653.205 982.250 C 652.542 982.113, 652.113 982.492, 652.250 983.093 C 652.388 983.694, 651.626 984.707, 650.559 985.343 C 647.828 986.970, 644 990.739, 644 991.800 C 644 993.077, 640.465 996.100, 639.669 995.502 C 639.301 995.226, 639.221 995.296, 639.491 995.658 C 641.338 998.131, 636.760 998.488, 606.586 998.222 L 575 997.945 575 975.972 L 575 954 562.500 954 L 550 954 550 1011.500 M 947.524 954.961 C 947.235 955.429, 946.098 955.577, 944.999 955.289 C 943.891 955, 943 955.259, 943 955.872 C 943 956.479, 941.170 957.269, 938.933 957.627 C 936.696 957.984, 934.275 958.868, 933.552 959.591 C 932.829 960.314, 931.960 960.626, 931.619 960.286 C 931.279 959.945, 931 960.218, 931 960.892 C 931 961.566, 930.547 961.838, 929.993 961.496 C 929.439 961.153, 928.716 961.577, 928.386 962.437 C 928.056 963.296, 927.145 964, 926.362 964 C 925.578 964, 924.678 964.675, 924.362 965.500 C 924.045 966.325, 923.211 967, 922.508 967 C 921.805 967, 920.483 968.139, 919.571 969.532 C 918.659 970.924, 917.482 971.798, 916.956 971.473 C 916.430 971.148, 915.987 971.471, 915.972 972.191 C 915.957 972.911, 914.607 974.813, 912.972 976.417 C 911.337 978.021, 910 979.933, 910 980.667 C 910 981.400, 909.550 982, 909 982 C 908.450 982, 908 982.868, 908 983.929 C 908 984.989, 907.346 986.511, 906.548 987.310 C 905.749 988.108, 905.374 989.040, 905.714 989.381 C 906.055 989.721, 905.782 990, 905.108 990 C 904.434 990, 904.154 990.441, 904.487 990.979 C 904.820 991.518, 904.526 992.980, 903.834 994.229 C 903.142 995.478, 902.693 996.905, 902.837 997.399 C 902.981 997.894, 902.792 999.019, 902.416 999.899 C 902.040 1000.780, 901.680 1002.625, 901.616 1004 C 901.552 1005.375, 901.263 1006.950, 900.974 1007.500 C 900.685 1008.050, 900.555 1009.850, 900.684 1011.500 C 901.078 1016.524, 901.838 1023.500, 901.992 1023.500 C 902.072 1023.500, 902.309 1024.809, 902.518 1026.409 C 902.727 1028.009, 903.258 1029.584, 903.699 1029.909 C 904.139 1030.234, 904.657 1031.400, 904.850 1032.500 C 905.042 1033.600, 905.525 1034.725, 905.923 1035 C 906.647 1035.501, 907.785 1038.060, 907.701 1039 C 907.676 1039.275, 909.071 1041.050, 910.801 1042.943 C 912.531 1044.837, 913.776 1046.558, 913.567 1046.766 C 912.932 1047.401, 923.409 1057.404, 926.295 1058.919 C 927.783 1059.699, 929 1060.712, 929 1061.169 C 929 1061.626, 929.900 1062, 931 1062 C 932.100 1062, 933 1062.477, 933 1063.059 C 933 1063.641, 933.450 1063.840, 934 1063.500 C 934.550 1063.160, 935 1063.385, 935 1064 C 935 1064.615, 935.450 1064.840, 936 1064.500 C 936.550 1064.160, 937 1064.407, 937 1065.048 C 937 1065.689, 937.623 1065.975, 938.385 1065.682 C 939.147 1065.390, 940.665 1065.777, 941.757 1066.543 C 942.850 1067.308, 944.702 1067.750, 945.872 1067.525 C 947.042 1067.299, 948 1067.523, 948 1068.022 C 948 1068.553, 970.128 1068.904, 1001.500 1068.871 C 1030.925 1068.839, 1055 1068.431, 1055 1067.964 C 1055 1067.497, 1055.891 1067.286, 1056.979 1067.496 C 1058.067 1067.706, 1059.224 1067.447, 1059.548 1066.922 C 1059.873 1066.397, 1060.557 1066.226, 1061.069 1066.543 C 1061.581 1066.859, 1062 1066.737, 1062 1066.272 C 1062 1065.806, 1062.950 1065.354, 1064.112 1065.267 C 1065.273 1065.179, 1066.997 1064.407, 1067.943 1063.552 C 1068.889 1062.696, 1069.899 1062.232, 1070.189 1062.522 C 1070.478 1062.811, 1071.284 1062.362, 1071.980 1061.524 C 1072.676 1060.686, 1073.886 1060, 1074.670 1060 C 1075.454 1060, 1077.138 1058.875, 1078.412 1057.500 C 1079.687 1056.125, 1081.173 1055, 1081.715 1055 C 1082.257 1055, 1083.781 1053.566, 1085.100 1051.812 C 1086.420 1050.059, 1088.287 1047.934, 1089.250 1047.090 C 1090.213 1046.246, 1091 1044.981, 1091 1044.278 C 1091 1043.575, 1091.450 1043, 1092 1043 C 1092.550 1043, 1093 1042.394, 1093 1041.653 C 1093 1040.912, 1093.891 1039.279, 1094.979 1038.024 C 1096.068 1036.769, 1096.716 1035.350, 1096.420 1034.871 C 1096.124 1034.392, 1096.434 1034, 1097.108 1034 C 1097.782 1034, 1098.055 1033.721, 1097.714 1033.381 C 1097.374 1033.040, 1097.749 1032.108, 1098.548 1031.310 C 1099.906 1029.951, 1100.475 1027.260, 1100.058 1024.176 C 1099.959 1023.448, 1100.317 1022.323, 1100.854 1021.676 C 1101.398 1021.020, 1101.681 1016.073, 1101.494 1010.500 C 1101.140 999.958, 1100.923 998.267, 1099.663 996.250 C 1099.233 995.563, 1099.136 994.588, 1099.447 994.085 C 1099.758 993.582, 1099.540 993.013, 1098.962 992.821 C 1098.384 992.628, 1097.835 991.465, 1097.743 990.235 C 1097.650 989.006, 1097.194 988, 1096.728 988 C 1096.263 988, 1096.138 987.586, 1096.450 987.081 C 1096.763 986.575, 1096.361 985.504, 1095.557 984.700 C 1094.753 983.896, 1094.363 982.970, 1094.691 982.643 C 1095.018 982.315, 1094.547 981.763, 1093.643 981.417 C 1092.739 981.070, 1092 980.321, 1092 979.753 C 1092 979.185, 1091.213 978.075, 1090.250 977.286 C 1089.188 976.416, 1089.090 976.138, 1090 976.580 C 1090.825 976.980, 1088.190 974.088, 1084.144 970.154 C 1080.097 966.219, 1076.385 963, 1075.894 963 C 1073.879 963, 1073.464 962.794, 1072.689 961.408 C 1072.242 960.610, 1071.455 960.219, 1070.939 960.538 C 1070.422 960.857, 1070 960.690, 1070 960.166 C 1070 959.642, 1069.302 958.946, 1068.448 958.618 C 1067.398 958.215, 1067.140 958.417, 1067.650 959.243 C 1068.065 959.914, 1067.166 959.489, 1065.652 958.299 C 1064.139 957.108, 1062.023 956.303, 1060.950 956.510 C 1059.878 956.716, 1059 956.509, 1059 956.048 C 1059 955.588, 1057.987 955.123, 1056.750 955.015 C 1048.805 954.323, 947.950 954.272, 947.524 954.961 M 1107 1011.500 L 1107 1069 1119.500 1069 L 1132 1069 1132 1046 L 1132 1023 1162.781 1023 L 1193.563 1023 1199.531 1029.250 L 1205.500 1035.500 1199 1029.500 L 1192.501 1023.500 1198 1029.343 C 1201.025 1032.557, 1211.690 1042.811, 1221.699 1052.131 L 1239.899 1069.077 1257.100 1068.951 L 1274.300 1068.826 1259.967 1054.467 C 1252.084 1046.570, 1245.346 1040.286, 1244.994 1040.504 C 1244.169 1041.014, 1228.774 1025.559, 1229.442 1024.891 C 1229.719 1024.614, 1226.920 1021.488, 1223.223 1017.944 L 1216.500 1011.500 1223 1018.500 L 1229.500 1025.500 1222.739 1019.018 L 1215.977 1012.535 1245.232 983.268 L 1274.487 954 1256.604 954 C 1240.726 954, 1238.577 954.196, 1237.441 955.750 C 1236.737 956.712, 1235.775 957.500, 1235.302 957.500 C 1234.830 957.500, 1232.431 959.477, 1229.972 961.894 C 1227.512 964.310, 1226.175 965.911, 1227 965.452 C 1228.290 964.733, 1228.309 964.852, 1227.137 966.297 C 1226.387 967.222, 1225.455 967.781, 1225.065 967.540 C 1224.245 967.033, 1221 970.566, 1221 971.966 C 1221 972.484, 1218.862 974.540, 1216.250 976.535 C 1213.638 978.530, 1211.480 980.688, 1211.455 981.331 C 1211.430 981.974, 1210.867 982.388, 1210.205 982.250 C 1209.542 982.113, 1209.113 982.492, 1209.250 983.093 C 1209.388 983.694, 1208.626 984.707, 1207.559 985.343 C 1204.828 986.970, 1201 990.739, 1201 991.800 C 1201 993.077, 1197.465 996.100, 1196.669 995.502 C 1196.301 995.226, 1196.221 995.296, 1196.491 995.658 C 1198.338 998.131, 1193.760 998.488, 1163.586 998.222 L 1132 997.945 1132 975.972 L 1132 954 1119.500 954 L 1107 954 1107 1011.500 M 759.885 980.763 C 752.462 984.593, 751.261 987.474, 751.048 1001.955 C 750.948 1008.805, 750.713 1014.655, 750.528 1014.955 C 750.342 1015.255, 775.818 1015.380, 807.141 1015.234 L 864.092 1014.968 863.938 1003.234 C 863.853 996.780, 863.291 990.600, 862.690 989.500 C 862.088 988.400, 861.496 986.898, 861.374 986.162 C 861.087 984.440, 857.836 980.830, 857.171 981.496 C 856.891 981.776, 855.791 981.216, 854.726 980.252 C 853.661 979.288, 852.612 978.612, 852.395 978.750 C 852.178 978.888, 851.663 978.990, 851.250 978.978 C 850.837 978.966, 831.098 978.853, 807.385 978.728 C 764.344 978.500, 764.262 978.504, 759.885 980.763 M 447.731 979.759 L 394.962 980.018 395.231 1002.259 L 395.500 1024.500 449.448 1024.708 C 485.757 1024.848, 503.808 1024.574, 504.654 1023.872 C 505.346 1023.298, 506.452 1023.161, 507.111 1023.568 C 507.869 1024.037, 508.047 1023.885, 507.595 1023.155 C 507.203 1022.520, 507.361 1022, 507.948 1022 C 509.400 1022, 513.139 1017.574, 514.578 1014.151 C 515.948 1010.894, 516.123 991, 514.782 991 C 514.287 991, 514.141 990.581, 514.457 990.069 C 514.774 989.557, 514.568 988.851, 514 988.500 C 513.432 988.149, 513.184 987.511, 513.450 987.082 C 513.883 986.380, 510.227 982.528, 509 982.393 C 508.725 982.363, 507.375 981.721, 506 980.968 C 502.956 979.300, 510.293 979.452, 447.731 979.759 M 949.827 980.167 C 947.011 981.582, 941.168 984, 940.566 984 C 939.486 984, 932.485 991.398, 932.759 992.250 C 932.902 992.693, 932.339 993.316, 931.509 993.635 C 930.679 993.953, 930 995.092, 930 996.166 C 930 997.402, 929.571 997.853, 928.830 997.395 C 928.043 996.909, 927.869 997.217, 928.299 998.336 C 928.650 999.252, 928.454 1000, 927.862 1000 C 927.270 1000, 927.045 1000.675, 927.362 1001.500 C 927.678 1002.325, 927.546 1003, 927.069 1003 C 926.331 1003, 925.933 1005.889, 925.933 1011.250 C 925.933 1012.472, 926.769 1018.016, 927.404 1021 C 927.942 1023.535, 929.308 1026.469, 930.244 1027.100 C 930.733 1027.430, 931.237 1028.407, 931.363 1029.270 C 931.632 1031.100, 938.998 1038.347, 941.080 1038.829 C 941.861 1039.010, 943.288 1039.867, 944.250 1040.734 C 945.212 1041.601, 946.007 1041.903, 946.015 1041.405 C 946.024 1040.907, 946.457 1041.175, 946.979 1042 C 947.798 1043.297, 954.968 1043.531, 999.963 1043.732 C 1035.495 1043.890, 1052 1043.633, 1052 1042.923 C 1052 1042.350, 1052.439 1042.153, 1052.976 1042.485 C 1053.964 1043.096, 1062.220 1039.130, 1062.833 1037.750 C 1063.017 1037.338, 1063.804 1037, 1064.583 1037 C 1065.362 1037, 1066 1036.650, 1066 1036.223 C 1066 1035.795, 1067.325 1033.995, 1068.944 1032.223 C 1070.563 1030.450, 1071.651 1029, 1071.362 1029 C 1071.073 1029, 1071.746 1027.529, 1072.857 1025.732 C 1075.527 1021.411, 1076.273 1017.897, 1076.265 1009.675 C 1076.258 1003.464, 1074.868 998.501, 1072.685 996.900 C 1072.235 996.570, 1071.767 995.617, 1071.644 994.783 C 1071.522 993.949, 1070.089 992.046, 1068.461 990.553 C 1066.832 989.060, 1066.063 988.127, 1066.750 988.478 C 1069.374 989.821, 1067.822 988.211, 1063.500 985.107 C 1061.025 983.330, 1059 982.139, 1059 982.461 C 1059 982.783, 1057.895 982.322, 1056.544 981.437 C 1055.193 980.552, 1053.618 980.118, 1053.044 980.473 C 1052.470 980.828, 1052 980.754, 1052 980.309 C 1052 979.343, 951.744 979.204, 949.827 980.167 M 700.986 1054.250 C 708.403 1061.813, 714.591 1068, 714.736 1068 C 715.453 1068, 714.023 1066.514, 701.250 1053.986 L 687.500 1040.500 700.986 1054.250 M 1257.986 1054.250 C 1270.514 1067.023, 1272 1068.453, 1272 1067.736 C 1272 1067.591, 1265.813 1061.403, 1258.250 1053.986 L 1244.500 1040.500 1257.986 1054.250" stroke="none" fill="#2c7cfc" fill-rule="evenodd"/></svg>